<svg width="1029" height="200" viewBox="0 0 1029 200" fill="none" xmlns="http://www.w3.org/2000/svg">
<path d="M238.356 162.816C216.735 162.386 204.73 146.517 202.463 124.205H312.185C312.408 121.451 312.52 118.657 312.52 115.833C312.52 72.3736 287.223 38.551 238.356 37.7363C189.489 38.5485 159.271 72.3736 159.271 115.833C159.271 159.292 185.757 195.129 238.356 195.929C288.159 195.929 305.037 172.934 313.874 142.198H272.267C269.514 151.94 260.505 162.816 238.356 162.816ZM236.922 68.74C262.149 68.74 269.039 88.7327 269.332 98.729H203.386C204.054 88.7327 211.695 68.74 236.922 68.74ZM470.605 99.7137V191.43H427.559V112.209C427.499 91.3067 423.624 73.4732 401.03 73.4732C401.03 73.4732 370.998 72.2287 370.998 112.709V191.43H327.952V42.7344H366.719C364.516 54.5276 359.964 66.2059 356.422 75.2801L356.022 76.3097C355.639 77.2893 356.365 78.3465 357.419 78.3465H370.998C379.292 47.6226 398.625 37.7363 420.366 37.7363C459.027 37.7363 469.006 65.2587 470.605 99.7137ZM110.867 132.452H152.822C146.983 168.091 121.774 195.219 77.4337 195.916C26.4166 195.114 0.726562 159.322 0.726562 115.833C0.726562 72.3436 30.0354 38.5635 77.4337 37.7512C118.783 38.461 146.365 64.2866 152.732 99.7137H110.517C105.984 83.802 94.6947 72.8185 78.8102 72.4736C57.8552 72.9309 44.8989 91.899 44.8989 116.273C44.8989 140.646 56.256 160.744 78.8102 161.191C96.1012 160.846 106.81 148.968 110.867 132.452ZM689.965 41.9847H693.594V87.3432H671.069C660.183 87.3432 641.037 96.7148 641.037 129.203V191.68H597.991V42.9843H636.758C634.555 54.7775 630.003 66.4558 626.462 75.53L626.061 76.5596C625.678 77.5393 626.404 78.5964 627.458 78.5964H641.037C649.331 47.8726 664.562 41.9847 689.965 41.9847ZM551.191 157.443H587.48V191.43H537.176C518.932 191.43 504.141 176.661 504.141 158.442V76.972H474.359V42.7344H504.141V0H543.683V42.7344H583.976V76.972H543.683V149.945C543.683 154.086 547.044 157.443 551.191 157.443Z" fill="#080B29" style="fill:#080B29;fill:color(display-p3 0.0320 0.0436 0.1600);fill-opacity:1;"/>
<path fill-rule="evenodd" clip-rule="evenodd" d="M781.435 34.2155C731.662 35.0654 700.885 70.515 700.885 116.059C700.885 161.602 727.863 199.158 781.435 200C781.908 199.992 782.378 199.982 782.845 199.969V199.929H786.712C818.711 198.738 840.924 184.219 853.261 162.748H867.596C868.699 162.748 869.464 163.858 869.059 164.886L868.639 165.967C864.937 175.45 860.188 187.64 857.866 199.961C887.956 199.973 948.177 199.998 948.177 199.998C1001.75 199.155 1028.73 161.641 1028.73 116.056C1028.73 70.4704 997.95 35.0628 948.177 34.2129L781.435 34.2155ZM747.006 116.523C747.006 142.057 758.919 163.116 782.58 163.603C806.241 163.116 818.157 142.057 818.157 116.523C818.157 90.9888 804.565 71.113 782.58 70.6146C760.598 71.1156 747.006 90.9888 747.006 116.523Z" fill="#0092E9" style="fill:#0092E9;fill:color(display-p3 0.0000 0.5740 0.9132);fill-opacity:1;"/>
</svg>
